# xmcd
#
# Track frame offsets:
#	150
#	16635
#	42619
#	61619
#	81554
#	104088
#	132588
#	170028
#	211380
#	236471
#
# Disc length: 3568 seconds
#
# Revision: 1
# Processed by: cddbd v1.5.2PL0 Copyright (c) Steve Scherf et al.
# Submitted via: audiograbber 1.83.01
#
DISCID=8c0dee0a
DTITLE=Eric Clapton - One more car, one more rider - Live on Tour 2001 CD1
DYEAR=2001
DGENRE=Blues/Rock/Pop
TTITLE0=Key to the highway
TTITLE1=Reptile
TTITLE2=Got you on my mind
TTITLE3=Tears in heaven
TTITLE4=Bell bottom Blues
TTITLE5=Change the world
TTITLE6=My father's eyes
TTITLE7=River of tears
TTITLE8=Goin' down slow
TTITLE9=She's gone
EXTD=
EXTT0=
EXTT1=
EXTT2=
EXTT3=
EXTT4=
EXTT5=
EXTT6=
EXTT7=
EXTT8=
EXTT9=
PLAYORDER=
